<svg version="1.1" xmlns="http://www.w3.org/2000/svg" xmlns:xlink="http://www.w3.org/1999/xlink" width="12.6828" height="17.22936" viewBox="0,0,12.6828,17.22936"><g transform="translate(-233.6586,-171.38532)"><g data-paper-data="{&quot;isPaintingLayer&quot;:true}" fill-rule="nonzero" stroke="none" stroke-width="0.5" stroke-linecap="butt" stroke-linejoin="miter" stroke-miterlimit="10" stroke-dasharray="" stroke-dashoffset="0" style="mix-blend-mode: normal"><path d="M234.50576,174.32759c0.45058,-0.96654 1.11701,-1.49671 1.89861,-1.78214c0.13408,-0.08512 0.29234,-0.13555 0.46216,-0.13867c0.82313,-0.19876 1.74237,-0.18904 2.65667,-0.16317l0.00388,-0.04016c0.03885,-0.45829 0.42316,-0.81812 0.8915,-0.81812c0.44337,0 0.81142,0.32249 0.88238,0.7457l0.05045,0.26946c1.34352,0.23764 2.5259,0.80704 3.30815,2.11998c0.69509,1.16665 0.66374,2.81543 0.63191,4.3535c0.01947,0.35783 0.02813,0.72419 0.02851,1.10518c0.00037,0.36662 0.20732,0.79749 0,1.09987v0.61779c0.00572,0.00127 0.01147,0.00258 0.01725,0.00394c0.87095,0.20493 0.66602,1.07588 0.66602,1.07588c-0.3146,1.33578 -0.22217,4.375 -2.25303,4.53249c-2.0078,0.1557 -2.38877,-1.6234 -2.57285,-3.00606c-0.04069,-0.30564 0.2141,-0.59897 0.18632,-0.90605c-0.00819,-0.09048 -0.18026,-0.03493 -0.27096,-0.02955c-0.30041,0.01783 -0.59645,0.09696 -0.89738,0.09889c-0.541,0.00347 -1.09464,0.05368 -1.62709,-0.03034c0.21105,0.50904 0.29606,1.07463 0.30929,1.62514c0.03188,1.32664 -0.99553,2.85307 -2.37448,2.86548c-0.09329,0.39451 -0.44774,0.68806 -0.87075,0.68806c-0.47485,0 -0.8633,-0.3699 -0.89292,-0.83727l-0.05451,-0.7489c-0.81547,-0.97178 -0.81277,-2.44087 -0.81752,-3.67121c0.01001,-3.11122 -0.77582,-5.99613 0.63838,-9.02972z" data-paper-data="{&quot;index&quot;:null}" fill="#ff0000"/><path d="M246.01331,175.96084c0.10469,0.27978 0.14369,0.56702 0.05018,0.83284c-0.61664,1.7529 -3.91614,1.44232 -4.97222,0.54536c-0.59814,-0.50802 -1.40733,-1.16547 -1.3252,-1.94592c0.07933,-0.75382 1.01111,-1.1844 1.69011,-1.52132c0.94319,-0.46802 4.71188,-0.21832 4.88033,1.30121c0.03309,0.29849 -0.10514,0.55819 -0.3232,0.78782z" data-paper-data="{&quot;index&quot;:null}" fill="#00f3ff"/></g></g></svg>